# xmcd CD database file
#
# Track frame offsets:
#	150
#	21025
#	42967
#	68212
#	87932
#	108162
#	129699
#	143819
#	166237
#	188382
#	208367
#	231817
#
# Disc length: 3416 seconds
#
# Revision: 0
# Processed by: cddbd v1.5.2PL0 Copyright (c) Steve Scherf et al.
# Submitted via: CDex 1.51
#
DISCID=9f0d560c
DTITLE=La Ley - Libertad
DYEAR=2003
DGENRE=Salsa
TTITLE0=Amate Y Salvate
TTITLE1=Esa Es La Verdad
TTITLE2=Libertad
TTITLE3=Y Los Demas
TTITLE4=Durar Hasta El Final
TTITLE5=Mas Alla
TTITLE6=Sabes Quien Eres?
TTITLE7=En Casa
TTITLE8=Surazul
TTITLE9=Mi Ley
TTITLE10=Hotel Malibu
TTITLE11=Mundo Ideal
EXTD=YEAR: 2003
EXTT0=
EXTT1=
EXTT2=
EXTT3=
EXTT4=
EXTT5=
EXTT6=
EXTT7=
EXTT8=
EXTT9=
EXTT10=
EXTT11=
PLAYORDER=
